<svg class="main-svg" xmlns="http://www.w3.org/2000/svg" xmlns:xlink="http://www.w3.org/1999/xlink" width="800" height="600" style="" viewBox="0 0 800 600"><rect x="0" y="0" width="800" height="600" style="fill: rgb(255, 255, 255); fill-opacity: 1;"/><defs id="defs-b8b6e9"><g class="clips"><clipPath id="clipb8b6e9xyplot" class="plotclip"><rect width="640" height="460"/></clipPath><clipPath class="axesclip" id="clipb8b6e9x"><rect x="80" y="0" width="640" height="600"/></clipPath><clipPath class="axesclip" id="clipb8b6e9y"><rect x="0" y="60" width="800" height="460"/></clipPath><clipPath class="axesclip" id="clipb8b6e9xy"><rect x="80" y="60" width="640" height="460"/></clipPath></g><g class="gradients"/><g class="patterns"/></defs><g class="bglayer"/><g class="layer-below"><g class="imagelayer"/><g class="shapelayer"/></g><g class="cartesianlayer"><g class="subplot xy"><g class="layer-subplot"><g class="shapelayer"/><g class="imagelayer"/></g><g class="minor-gridlayer"><g class="x"/><g class="y"/></g><g class="gridlayer"><g class="x"/><g class="y"/></g><g class="zerolinelayer"/><g class="layer-between"><g class="shapelayer"/><g class="imagelayer"/></g><path class="xlines-below"/><path class="ylines-below"/><g class="overlines-below"/><g class="xaxislayer-below"/><g class="yaxislayer-below"/><g class="overaxes-below"/><g class="overplot"><g class="xy" transform="translate(80,60)" clip-path="url(#clipb8b6e9xyplot)"><g class="scatterlayer mlayer"><g class="trace scatter tracec36e46" style="stroke-miterlimit: 2; opacity: 1;"><g class="fills"/><g class="errorbars"/><g class="lines"><path class="js-line" d="M182.39,458H209.36V455.99H241.3V453.99H241.34V451.98H266.06V449.98H291.59V447.97H291.59V445.97H291.61V443.96H291.61V441.96H291.63V439.95H291.63V437.95H316.88V435.94H316.92V433.94H317.4V431.94H317.41V429.93H317.42V427.93H317.42V425.92H317.43V423.92H317.45V421.91H317.45V419.91H317.46V417.9H317.47V415.9H323.65V413.89H323.66V411.89H328.43V409.89H336.91V407.88H336.95V405.88H336.95V403.87H337V401.87H337V399.86H372.67V397.86H373.29V395.85H373.31V393.85H373.32V391.84H373.32V389.84H373.35V387.83H373.5V385.83H373.51V383.83H374.03V381.82H386.07V379.82H386.08V377.81H397.24V375.81H397.25V373.8H397.39V371.8H453.64V369.79H453.65V367.79H455.42V365.78H468.01V363.78H475.39V361.78H480.75V359.77H480.75V357.77H480.76V355.76H480.77V353.76H480.78V351.75H509.59V349.75H509.61V347.74H513.35V345.74H513.37V343.73H513.43V341.73H515.67V339.72H520.26V337.72H520.32V335.72" style="vector-effect: none; fill: none; stroke: rgb(31, 119, 180); stroke-opacity: 1; stroke-width: 2px; opacity: 1;"/></g><g class="points"/><g class="text"/></g><g class="trace scatter trace1307f5" style="stroke-miterlimit: 2; opacity: 1;"><g class="fills"/><g class="errorbars"/><g class="lines"><path class="js-line" d="M0.49,458H0.72V455.99H49.87V453.99H49.89V451.98H49.93V449.98H51.4V447.97H51.41V445.97H64.85V443.96H64.86V441.96H69.96V439.95H69.97V437.95H95V435.94H95.03V433.94H95.08V431.94H95.09V429.93H95.69V427.93H95.69V425.92H95.69V423.92H95.69V421.91H95.7V419.91H95.72V417.9H95.72V415.9H95.73V413.89H95.76V411.89H95.83V409.89H95.83V407.88H112.87V405.88H112.97V403.87H113.19V401.87H114.78V399.86H114.86V397.86H114.86V395.85H114.94V393.85H114.95V391.84H121.31V389.84H121.39V387.83H121.41V385.83H121.42V383.83H121.45V381.82H121.46V379.82H121.48V377.81H144.36V375.81H152.51V373.8H152.52V371.8H152.53V369.79H152.53V367.79H152.6V365.78H152.61V363.78H178.47V361.78H182.37V359.77H182.37V357.77H182.44V355.76H203.24V353.76H203.31V351.75H251.81V349.75H291.66V347.74H373.48V345.74H373.97V343.73" style="vector-effect: none; fill: none; stroke: rgb(255, 127, 14); stroke-opacity: 1; stroke-width: 2px; opacity: 1;"/></g><g class="points"/><g class="text"/></g><g class="trace scatter trace1bf7da" style="stroke-miterlimit: 2; opacity: 1;"><g class="fills"/><g class="errorbars"/><g class="lines"><path class="js-line" d="M49.87,458H121.47V455.99H152.52V453.99H152.58V451.98H178.44V449.98H178.44V447.97H178.45V445.97H182.3V443.96H182.39V441.96H182.39V439.95H182.4V437.95H182.43V435.94H191.51V433.94H203.31V431.94H266.09V429.93H297.88V427.93H316.86V425.92H316.87V423.92H316.88V421.91H316.93V419.91H316.93V417.9H316.93V415.9H316.94V413.89H316.94V411.89H316.94V409.89H316.94V407.88H316.95V405.88H316.96V403.87H317.39V401.87H317.4V399.86H317.42V397.86H317.42V395.85H317.43V393.85H317.43V391.84H317.46V389.84H337V387.83H372.63V385.83H373.45V383.83H480.75V381.82H509.55V379.82H513.44V377.81H520.26V375.81H520.32V373.8H520.33V371.8H520.33V369.79H520.36V367.79H520.37V365.78H520.37V363.78H520.38V361.78H520.38V359.77H531.31V357.77H531.31V355.76H531.34V353.76H531.98V351.75H538.55V349.75" style="vector-effect: none; fill: none; stroke: rgb(44, 160, 44); stroke-opacity: 1; stroke-width: 2px; opacity: 1;"/></g><g class="points"/><g class="text"/></g><g class="trace scatter trace9d64ab" style="stroke-miterlimit: 2; opacity: 1;"><g class="fills"/><g class="errorbars"/><g class="lines"><path class="js-line" d="M0.01,458H0.09V455.99H0.21V453.99H0.35V451.98H6.99V449.98H7.02V447.97H7.05V445.97H112.85V443.96H178.47V441.96H203.17V439.95" style="vector-effect: none; fill: none; stroke: rgb(214, 39, 40); stroke-opacity: 1; stroke-width: 2px; opacity: 1;"/></g><g class="points"/><g class="text"/></g><g class="trace scatter trace1b0281" style="stroke-miterlimit: 2; opacity: 1;"><g class="fills"/><g class="errorbars"/><g class="lines"><path class="js-line" d="M0,458H0.02V455.99H0.23V453.99H0.58V451.98H0.64V449.98H0.65V447.97H0.69V445.97H0.75V443.96H6.91V441.96H7.17V439.95H7.24V437.95H7.75V435.94H7.9V433.94H32.92V431.94H49.86V429.93H49.91V427.93H49.94V425.92H51.35V423.92H64.86V421.91H70.49V419.91H70.53V417.9H74.93V415.9H74.93V413.89H77.1V411.89H77.14V409.89H95.07V407.88H95.07V405.88H95.69V403.87H95.71V401.87H95.72V399.86H95.73V397.86H95.75V395.85H95.77V393.85H95.78V391.84H95.81V389.84H95.82V387.83H95.84V385.83H112.83V383.83H112.84V381.82H112.85V379.82H112.85V377.81H112.86V375.81H112.86V373.8H112.91V371.8H112.96V369.79H112.96V367.79H112.97V365.78H112.98V363.78H113.01V361.78H113.02V359.77H113.02V357.77H113.03V355.76H113.06V353.76H113.07V351.75H113.08V349.75H113.14V347.74H113.19V345.74H113.2V343.73H113.23V341.73H113.27V339.72H113.27V337.72H114.74V335.72H114.74V333.71H114.77V331.71H114.84V329.7H114.84V327.7H114.85V325.69H114.95V323.69H121.41V321.68H121.46V319.68H133.84V317.67H133.85V315.67H133.85V313.67H133.9V311.66H133.93V309.66H133.94V307.65H144.35V305.65H144.37V303.64H144.39V301.64H152.52V299.63H152.52V297.63H152.53V295.62H152.54V293.62H152.56V291.61H152.57V289.61H152.6V287.61H178.44V285.6H178.44V283.6H178.47V281.59H182.32V279.59H182.32V277.58H182.38V275.58H182.41V273.57H182.43V271.57H183.07V269.56H191.47V267.56H191.47V265.56H191.53V263.55H191.53V261.55H203.22V259.54H203.24V257.54H203.26V255.53H203.26V253.53H203.3V251.52H203.3V249.52H203.3V247.51H203.31V245.51H203.31V243.5H203.31V241.5H208.55V239.5H208.57V237.49H209.27V235.49H209.3V233.48H209.3V231.48H209.34V229.47H241.26V227.47H241.3V225.46H241.33V223.46H241.34V221.45H241.38V219.45H248.01V217.44H248.01V215.44H265.59V213.44H265.6V211.43H266.06V209.43H266.08V207.42H266.09V205.42H266.09V203.41H266.1V201.41H291.58V199.4H291.59V197.4H291.61V195.39H291.62V193.39H308.63V191.39H308.63V189.38H308.64V187.38H316.88V185.37H316.92V183.37H316.92V181.36H317.42V179.36H317.46V177.35H323.62V175.35H323.65V173.34H328.43V171.34H336.46V169.33H336.95V167.33H337.02V165.33H337.02V163.32H337.05V161.32H372.6V159.31H372.62V157.31H372.62V155.3H372.62V153.3H372.63V151.29H372.68V149.29H373.23V147.28H373.36V145.28H373.44V143.28H373.48V141.27H373.51V139.27H373.52V137.26H374V135.26H386.05V133.25H386.07V131.25H397.21V129.24H397.23V127.24H444.57V125.23H453.63V123.23H453.63V121.22H453.63V119.22H453.64V117.22H453.64V115.21H453.64V113.21H453.65V111.2H453.65V109.2H462.64V107.19H475.4V105.19H480.76V103.18H480.76V101.18H480.76V99.17H480.81V97.17H509.56V95.17H509.56V93.16H509.61V91.16H513.35V89.15H513.37V87.15H515.67V85.14H520.2V83.14H520.33V81.13H520.35V79.13H520.37V77.12H520.37V75.12H531.31V73.11H531.32V71.11H531.32V69.11H531.35V67.1H531.35V65.1H531.37V63.09H531.38V61.09H538.53V59.08H538.56V57.08H538.56V55.07H567.39V53.07H568.05V51.06H568.06V49.06H568.08V47.06H574.49V45.05H574.52V43.05H589.12V41.04H589.13V39.04H589.13V37.03H593.41V35.03H593.43V33.02H625.1V31.02H625.12V29.01H639.86V27.01H639.89V25H640V23" style="vector-effect: none; fill: none; stroke: rgb(148, 103, 189); stroke-opacity: 1; stroke-width: 2px; opacity: 1;"/></g><g class="points"/><g class="text"/></g></g></g></g><path class="xlines-above crisp" d="M79,520.5H720" style="fill: none; stroke-width: 1px; stroke: rgb(36, 36, 36); stroke-opacity: 1;"/><path class="ylines-above crisp" d="M79.5,60V520" style="fill: none; stroke-width: 1px; stroke: rgb(36, 36, 36); stroke-opacity: 1;"/><g class="overlines-above"/><g class="xaxislayer-above"><path class="xtick ticks crisp" d="M0,521v5" transform="translate(111.08,0)" style="stroke: rgb(0, 0, 0); stroke-opacity: 1; stroke-width: 1px;"/><path class="xtick ticks crisp" d="M0,521v5" transform="translate(193.13,0)" style="stroke: rgb(0, 0, 0); stroke-opacity: 1; stroke-width: 1px;"/><path class="xtick ticks crisp" d="M0,521v5" transform="translate(276.08000000000004,0)" style="stroke: rgb(0, 0, 0); stroke-opacity: 1; stroke-width: 1px;"/><path class="xtick ticks crisp" d="M0,521v5" transform="translate(359.04,0)" style="stroke: rgb(0, 0, 0); stroke-opacity: 1; stroke-width: 1px;"/><path class="xtick ticks crisp" d="M0,521v5" transform="translate(440.19,0)" style="stroke: rgb(0, 0, 0); stroke-opacity: 1; stroke-width: 1px;"/><path class="xtick ticks crisp" d="M0,521v5" transform="translate(522.24,0)" style="stroke: rgb(0, 0, 0); stroke-opacity: 1; stroke-width: 1px;"/><path class="xtick ticks crisp" d="M0,521v5" transform="translate(605.19,0)" style="stroke: rgb(0, 0, 0); stroke-opacity: 1; stroke-width: 1px;"/><path class="xtick ticks crisp" d="M0,521v5" transform="translate(688.14,0)" style="stroke: rgb(0, 0, 0); stroke-opacity: 1; stroke-width: 1px;"/><g class="xtick"><text text-anchor="middle" x="0" y="540.4" transform="translate(111.08,0)" style="font-family: 'Open Sans', verdana, arial, sans-serif; font-size: 12px; fill: rgb(0, 0, 0); fill-opacity: 1; white-space: pre; opacity: 1;">Apr 2020</text></g><g class="xtick"><text text-anchor="middle" x="0" y="540.4" style="font-family: 'Open Sans', verdana, arial, sans-serif; font-size: 12px; fill: rgb(0, 0, 0); fill-opacity: 1; white-space: pre; opacity: 1;" transform="translate(193.13,0)">Jul 2020</text></g><g class="xtick"><text text-anchor="middle" x="0" y="540.4" style="font-family: 'Open Sans', verdana, arial, sans-serif; font-size: 12px; fill: rgb(0, 0, 0); fill-opacity: 1; white-space: pre; opacity: 1;" transform="translate(276.08000000000004,0)">Oct 2020</text></g><g class="xtick"><text text-anchor="middle" x="0" y="540.4" style="font-family: 'Open Sans', verdana, arial, sans-serif; font-size: 12px; fill: rgb(0, 0, 0); fill-opacity: 1; white-space: pre; opacity: 1;" transform="translate(359.04,0)">Jan 2021</text></g><g class="xtick"><text text-anchor="middle" x="0" y="540.4" style="font-family: 'Open Sans', verdana, arial, sans-serif; font-size: 12px; fill: rgb(0, 0, 0); fill-opacity: 1; white-space: pre; opacity: 1;" transform="translate(440.19,0)">Apr 2021</text></g><g class="xtick"><text text-anchor="middle" x="0" y="540.4" style="font-family: 'Open Sans', verdana, arial, sans-serif; font-size: 12px; fill: rgb(0, 0, 0); fill-opacity: 1; white-space: pre; opacity: 1;" transform="translate(522.24,0)">Jul 2021</text></g><g class="xtick"><text text-anchor="middle" x="0" y="540.4" style="font-family: 'Open Sans', verdana, arial, sans-serif; font-size: 12px; fill: rgb(0, 0, 0); fill-opacity: 1; white-space: pre; opacity: 1;" transform="translate(605.19,0)">Oct 2021</text></g><g class="xtick"><text text-anchor="middle" x="0" y="540.4" style="font-family: 'Open Sans', verdana, arial, sans-serif; font-size: 12px; fill: rgb(0, 0, 0); fill-opacity: 1; white-space: pre; opacity: 1;" transform="translate(688.14,0)">Jan 2022</text></g></g><g class="yaxislayer-above"><path class="ytick ticks crisp" d="M79,0h-5" transform="translate(0,520)" style="stroke: rgb(0, 0, 0); stroke-opacity: 1; stroke-width: 1px;"/><path class="ytick ticks crisp" d="M79,0h-5" transform="translate(0,419.77)" style="stroke: rgb(0, 0, 0); stroke-opacity: 1; stroke-width: 1px;"/><path class="ytick ticks crisp" d="M79,0h-5" transform="translate(0,319.54)" style="stroke: rgb(0, 0, 0); stroke-opacity: 1; stroke-width: 1px;"/><path class="ytick ticks crisp" d="M79,0h-5" transform="translate(0,219.31)" style="stroke: rgb(0, 0, 0); stroke-opacity: 1; stroke-width: 1px;"/><path class="ytick ticks crisp" d="M79,0h-5" transform="translate(0,119.08)" style="stroke: rgb(0, 0, 0); stroke-opacity: 1; stroke-width: 1px;"/><g class="ytick"><text text-anchor="end" x="71.6" y="4.199999999999999" transform="translate(0,520)" style="font-family: 'Open Sans', verdana, arial, sans-serif; font-size: 12px; fill: rgb(0, 0, 0); fill-opacity: 1; white-space: pre; opacity: 1;">0</text></g><g class="ytick"><text text-anchor="end" x="71.6" y="4.199999999999999" style="font-family: 'Open Sans', verdana, arial, sans-serif; font-size: 12px; fill: rgb(0, 0, 0); fill-opacity: 1; white-space: pre; opacity: 1;" transform="translate(0,419.77)">50</text></g><g class="ytick"><text text-anchor="end" x="71.6" y="4.199999999999999" style="font-family: 'Open Sans', verdana, arial, sans-serif; font-size: 12px; fill: rgb(0, 0, 0); fill-opacity: 1; white-space: pre; opacity: 1;" transform="translate(0,319.54)">100</text></g><g class="ytick"><text text-anchor="end" x="71.6" y="4.199999999999999" style="font-family: 'Open Sans', verdana, arial, sans-serif; font-size: 12px; fill: rgb(0, 0, 0); fill-opacity: 1; white-space: pre; opacity: 1;" transform="translate(0,219.31)">150</text></g><g class="ytick"><text text-anchor="end" x="71.6" y="4.199999999999999" style="font-family: 'Open Sans', verdana, arial, sans-serif; font-size: 12px; fill: rgb(0, 0, 0); fill-opacity: 1; white-space: pre; opacity: 1;" transform="translate(0,119.08)">200</text></g></g><g class="overaxes-above"/></g></g><g class="polarlayer"/><g class="smithlayer"/><g class="ternarylayer"/><g class="geolayer"/><g class="funnelarealayer"/><g class="pielayer"/><g class="iciclelayer"/><g class="treemaplayer"/><g class="sunburstlayer"/><g class="glimages"/><defs id="topdefs-b8b6e9"><g class="clips"/><clipPath id="legendb8b6e9"><rect width="229" height="124" x="0" y="0"/></clipPath></defs><g class="layer-above"><g class="imagelayer"/><g class="shapelayer"/></g><g class="infolayer"><g class="legend" pointer-events="all" transform="translate(555,281)"><rect class="bg" shape-rendering="crispEdges" style="stroke: rgb(68, 68, 68); stroke-opacity: 1; fill: rgb(255, 255, 255); fill-opacity: 1; stroke-width: 0px;" width="229" height="124" x="0" y="0"/><g class="scrollbox" transform="" clip-path="url(#legendb8b6e9)"><text class="legendtitletext" text-anchor="start" x="2" y="18.2" style="font-family: 'Open Sans', verdana, arial, sans-serif; font-size: 14px; fill: rgb(36, 36, 36); fill-opacity: 1; white-space: pre;"><tspan style="font-weight:bold"> Scaffold </tspan></text><g class="groups" transform=""><g class="traces" transform="translate(0,32.7)" style="opacity: 1;"><text class="legendtext" text-anchor="start" x="40" y="4.680000000000001" style="font-family: 'Open Sans', verdana, arial, sans-serif; font-size: 12px; fill: rgb(36, 36, 36); fill-opacity: 1; white-space: pre;">Scaffold 1 - 62 Molecules</text><g class="layers" style="opacity: 1;"><g class="legendfill"/><g class="legendlines"><path class="js-line" d="M5,0h30" style="fill: none; stroke: rgb(31, 119, 180); stroke-opacity: 1; stroke-width: 2px;"/></g><g class="legendsymbols"><g class="legendpoints"/></g></g><rect class="legendtoggle" x="0" y="-9.5" width="223.90625" height="19" style="fill: rgb(0, 0, 0); fill-opacity: 0;"/></g></g><g class="groups" transform=""><g class="traces" transform="translate(0,51.7)" style="opacity: 1;"><text class="legendtext" text-anchor="start" x="40" y="4.680000000000001" style="font-family: 'Open Sans', verdana, arial, sans-serif; font-size: 12px; fill: rgb(36, 36, 36); fill-opacity: 1; white-space: pre;">Scaffold 2 - 58 Molecules</text><g class="layers" style="opacity: 1;"><g class="legendfill"/><g class="legendlines"><path class="js-line" d="M5,0h30" style="fill: none; stroke: rgb(255, 127, 14); stroke-opacity: 1; stroke-width: 2px;"/></g><g class="legendsymbols"><g class="legendpoints"/></g></g><rect class="legendtoggle" x="0" y="-9.5" width="223.90625" height="19" style="fill: rgb(0, 0, 0); fill-opacity: 0;"/></g></g><g class="groups" transform=""><g class="traces" transform="translate(0,70.7)" style="opacity: 1;"><text class="legendtext" text-anchor="start" x="40" y="4.680000000000001" style="font-family: 'Open Sans', verdana, arial, sans-serif; font-size: 12px; fill: rgb(36, 36, 36); fill-opacity: 1; white-space: pre;">Scaffold 3 - 55 Molecules</text><g class="layers" style="opacity: 1;"><g class="legendfill"/><g class="legendlines"><path class="js-line" d="M5,0h30" style="fill: none; stroke: rgb(44, 160, 44); stroke-opacity: 1; stroke-width: 2px;"/></g><g class="legendsymbols"><g class="legendpoints"/></g></g><rect class="legendtoggle" x="0" y="-9.5" width="223.90625" height="19" style="fill: rgb(0, 0, 0); fill-opacity: 0;"/></g></g><g class="groups" transform=""><g class="traces" transform="translate(0,89.7)" style="opacity: 1;"><text class="legendtext" text-anchor="start" x="40" y="4.680000000000001" style="font-family: 'Open Sans', verdana, arial, sans-serif; font-size: 12px; fill: rgb(36, 36, 36); fill-opacity: 1; white-space: pre;">Scaffold 4 - 10 Molecules</text><g class="layers" style="opacity: 1;"><g class="legendfill"/><g class="legendlines"><path class="js-line" d="M5,0h30" style="fill: none; stroke: rgb(214, 39, 40); stroke-opacity: 1; stroke-width: 2px;"/></g><g class="legendsymbols"><g class="legendpoints"/></g></g><rect class="legendtoggle" x="0" y="-9.5" width="223.90625" height="19" style="fill: rgb(0, 0, 0); fill-opacity: 0;"/></g></g><g class="groups" transform=""><g class="traces" transform="translate(0,108.7)" style="opacity: 1;"><text class="legendtext" text-anchor="start" x="40" y="4.680000000000001" style="font-family: 'Open Sans', verdana, arial, sans-serif; font-size: 12px; fill: rgb(36, 36, 36); fill-opacity: 1; white-space: pre;">Misc Scaffolds - 218 Molecules</text><g class="layers" style="opacity: 1;"><g class="legendfill"/><g class="legendlines"><path class="js-line" d="M5,0h30" style="fill: none; stroke: rgb(148, 103, 189); stroke-opacity: 1; stroke-width: 2px;"/></g><g class="legendsymbols"><g class="legendpoints"/></g></g><rect class="legendtoggle" x="0" y="-9.5" width="223.90625" height="19" style="fill: rgb(0, 0, 0); fill-opacity: 0;"/></g></g></g><rect class="scrollbar" rx="20" ry="3" width="0" height="0" style="fill: rgb(128, 139, 164); fill-opacity: 1;" x="0" y="0"/></g><g class="g-gtitle"/><g class="g-xtitle"><text class="xtitle" x="400" y="574.20625" text-anchor="middle" style="opacity: 1; font-family: 'Open Sans', verdana, arial, sans-serif; font-size: 24px; fill: rgb(0, 0, 0); fill-opacity: 1; white-space: pre;"><tspan style="font-weight:bold"> Date of Crystal Structure Collection </tspan></text></g><g class="g-ytitle"><text class="ytitle" transform="rotate(-90,25.803125,290)" x="25.803125" y="290" text-anchor="middle" style="opacity: 1; font-family: 'Open Sans', verdana, arial, sans-serif; font-size: 24px; fill: rgb(0, 0, 0); fill-opacity: 1; white-space: pre;"><tspan style="font-weight:bold"> Cumulative Number of Structures </tspan></text></g></g></svg>